<?xml version="1.0" encoding="UTF-8"?> <!-- Generator: Adobe Illustrator 25.2.1, SVG Export Plug-In . SVG Version: 6.00 Build 0) --> <svg xmlns="http://www.w3.org/2000/svg" xmlns:xlink="http://www.w3.org/1999/xlink" id="Ebene_1" x="0px" y="0px" viewBox="0 0 38.2 37.8" style="enable-background:new 0 0 38.2 37.8;" xml:space="preserve"> <style type="text/css"> .st0{fill:#004680;} </style> <g id="download" transform="translate(-204 -936.096)"> <g id="Gruppe_2534" transform="translate(216.505 949.285)"> <g id="Gruppe_2533"> <path id="Pfad_806" class="st0" d="M12,16.8l-4.6,4.6V0H5.8v21.4l-4.6-4.6L0,18l6.6,6.6l6.6-6.6L12,16.8z"></path> </g> </g> <g id="Gruppe_2536" transform="translate(204 936.096)"> <g id="Gruppe_2535" transform="translate(0 0)"> <path id="Pfad_807" class="st0" d="M36.3,13.7c-0.9-1-2.2-1.7-3.5-2c0.3-1,0.5-2.1,0.4-3.2C33,6.2,32,4,30.3,2.5 C28.6,0.9,26.3,0,24,0H24c-3.8,0-7.2,2.3-8.7,5.7c-1.4-1.1-3.3-1.6-5.1-1.5c-2.7,0.3-4.9,2-5.9,4.5C3.9,9.8,3.8,11,4,12.1 c-2.4,1.1-4,3.5-4,6.2c0,3.7,2.9,7.7,7.2,7.7h7.9v-1.6H7.2c-3.3,0-5.5-3.2-5.5-6.1c0-2.2,1.5-4.2,3.6-4.9L6,13.2l-0.2-0.7 c-0.3-1-0.2-2.1,0.1-3c0.7-1.9,2.5-3.2,4.5-3.4c1.8-0.2,3.5,0.5,4.7,1.9L16.1,9l0.4-1.6c1.1-4.1,5.2-6.6,9.3-5.5 c3.1,0.8,5.4,3.5,5.7,6.7c0.1,1.2-0.1,2.3-0.6,3.4L30.4,13l1.2,0.1c2.7,0.2,4.9,2.5,4.9,5.2c0,1.8-0.7,6.1-7.5,6.1h-6V26h6 c6.8,0,9.2-4,9.2-7.7C38.2,16.6,37.5,14.9,36.3,13.7z"></path> </g> </g> </g> </svg> 