<?xml version="1.0" encoding="UTF-8"?> <!-- Generator: Adobe Illustrator 25.2.1, SVG Export Plug-In . SVG Version: 6.00 Build 0) --> <svg xmlns="http://www.w3.org/2000/svg" xmlns:xlink="http://www.w3.org/1999/xlink" id="Smartphone" x="0px" y="0px" viewBox="0 0 23.4 43.5" style="enable-background:new 0 0 23.4 43.5;" xml:space="preserve"> <style type="text/css"> .st0{fill:#004680;} </style> <path id="Pfad_800" class="st0" d="M20,0H3.4C1.5,0,0,1.6,0,3.5V40c0,1.9,1.5,3.5,3.4,3.5H20c1.9,0,3.5-1.6,3.4-3.5V3.5 C23.4,1.6,21.9,0,20,0z M16.4,1.4L16,3.5H7.4L7,1.4H16.4z M22,40c0,1.1-0.9,2.1-2.1,2.1H3.4c-1.1,0-2.1-1-2.1-2.1V3.5 c0-1.1,0.9-2.1,2.1-2.1h2.2l0.6,2.9c0.1,0.3,0.3,0.6,0.7,0.6h9.6c0.3,0,0.6-0.2,0.7-0.6l0.6-2.9H20c1.1,0,2.1,1,2.1,2.1L22,40z"></path> <path id="Pfad_801" class="st0" d="M8.2,39H3.7C3.3,39,3,39.3,3,39.8s0.3,0.8,0.8,0.8h4.5c0.4,0,0.8-0.3,0.8-0.8S8.7,39,8.2,39z"></path> <path id="Pfad_802" class="st0" d="M10.4,39H9.6c-0.4,0-0.8,0.3-0.8,0.8s0.3,0.8,0.8,0.8h0.8c0.4,0,0.8-0.3,0.8-0.8S10.8,39,10.4,39 z"></path> </svg> 