<?xml version="1.0" encoding="UTF-8"?> <!-- Generator: Adobe Illustrator 25.2.1, SVG Export Plug-In . SVG Version: 6.00 Build 0) --> <svg xmlns="http://www.w3.org/2000/svg" xmlns:xlink="http://www.w3.org/1999/xlink" id="worldwide" x="0px" y="0px" viewBox="0 0 37.3 37.3" style="enable-background:new 0 0 37.3 37.3;" xml:space="preserve"> <style type="text/css"> .st0{fill:#004680;} </style> <g id="Gruppe_2531" transform="translate(0 0)"> <path id="Pfad_803" class="st0" d="M18.7,0C11.2,0,4.5,4.5,1.5,11.3l-0.2,0.1l0.1,0.3C-2.5,21.2,2.1,32.1,11.7,36 S32.1,35.2,36,25.7S35.2,5.2,25.7,1.4C23.4,0.5,21.1,0,18.7,0z M33.3,28.1l-1-1v-2.2c0-0.1,0-0.2-0.1-0.3l-2.4-4.8v-2.3 c0-0.2-0.1-0.4-0.3-0.5l-1.9-1.2c-0.1-0.1-0.3-0.1-0.5-0.1l-2.3,0.6l-3.8-1.6l-0.5-3.7L22,9.3h3.1l1.1,1.6c0.1,0.1,0.2,0.2,0.4,0.3 l3.7,0.6c0.1,0,0.2,0,0.3,0l3.4-1.1C37,16.2,36.7,22.8,33.3,28.1z M30.7,6.1l-1,0.7l-2.8-0.6l-1.8-0.6c-0.1,0-0.2,0-0.3,0l-2.3,0.6 l-1-0.3l0.8-1.5h2.1c0.1,0,0.2,0,0.3-0.1l2.2-1.1C28.2,4,29.5,5,30.7,6.1z M11.9,2.6l1.5,1c0.1,0.1,0.2,0.1,0.2,0.1l3,0.5l-0.3,0.9 l-1.6,0.5c-0.1,0-0.3,0.1-0.3,0.3l-1.8,3l-2.9,1.7l-4.2,0.6c-0.3,0-0.5,0.3-0.5,0.6v1.9C5,13.8,5,14,5.2,14.1l1.1,1.1v1.1l-2.6-1.7 l-0.9-2.8C4.5,7.6,7.8,4.4,11.9,2.6L11.9,2.6z M10.1,23l-2.8-0.6l-1-2.1v-1.5l2.3-2.3l0.9,1.7c0.1,0.2,0.3,0.3,0.6,0.3h4l1.7,2.8 c0.1,0.2,0.3,0.3,0.5,0.3h1.7L17.5,24l-2.4,2.4c-0.1,0.1-0.2,0.3-0.2,0.4v1.6L12.7,30c-0.2,0.1-0.2,0.3-0.2,0.5v2.2l-0.8-0.3 l-1.1-2.7v-6.1C10.6,23.3,10.4,23.1,10.1,23z M8.2,32.6c-5.9-4.4-8.3-12-6.2-19l0.5,1.6c0,0.1,0.1,0.2,0.2,0.3l3.1,2.1l-0.7,0.7 C5,18.3,5,18.5,5,18.7v1.9c0,0.1,0,0.2,0.1,0.3l1.2,2.5c0.1,0.2,0.2,0.3,0.4,0.3l2.6,0.5v5.7c0,0.1,0,0.2,0,0.2l1.2,3.1 c0.1,0.2,0.2,0.3,0.4,0.4l1.9,0.6c0.1,0,0.1,0,0.2,0c0.3,0,0.6-0.3,0.6-0.6l0,0v-2.8l2.2-1.7c0.2-0.1,0.2-0.3,0.2-0.5V27l2.3-2.3 c0.1-0.1,0.1-0.2,0.2-0.3l0.6-3.1c0.1-0.3-0.2-0.7-0.5-0.7c0,0-0.1,0-0.1,0h-2.1l-1.7-2.8c-0.1-0.2-0.3-0.3-0.5-0.3h-4l-1.1-2.1 C9.2,15.1,9,15,8.8,14.9c-0.2,0-0.4,0-0.5,0.2l-0.8,0.8v-1c0-0.2-0.1-0.3-0.2-0.4l-1.1-1.1v-1.1l3.8-0.5c0.1,0,0.2,0,0.2-0.1 l3.1-1.9c0.1-0.1,0.2-0.1,0.2-0.2l1.7-2.9L17,6.2c0.2-0.1,0.3-0.2,0.4-0.4L18,3.9c0.1-0.3-0.1-0.7-0.4-0.8c0,0-0.1,0-0.1,0 l-3.6-0.6l-0.6-0.4c3.9-1.3,8.2-1.1,12,0.4l-1.1,0.6h-2.3c-0.2,0-0.5,0.1-0.6,0.3L20,5.9c-0.2,0.3,0,0.7,0.3,0.8c0,0,0.1,0,0.1,0 l1.9,0.6c0.1,0,0.2,0,0.3,0l2.3-0.6l1.7,0.6c0,0,0,0,0.1,0l3.1,0.6c0.2,0,0.3,0,0.5-0.1L31.6,7c0.7,0.8,1.3,1.6,1.9,2.5l-3.1,1 L27.1,10L26,8.4c-0.1-0.2-0.3-0.3-0.5-0.3h-3.7c-0.2,0-0.3,0.1-0.4,0.2l-1.9,1.9c-0.1,0.1-0.2,0.3-0.2,0.5l0.6,4.4 c0,0.2,0.2,0.4,0.4,0.5l4.4,1.9c0.1,0.1,0.3,0.1,0.4,0l2.2-0.6l1.4,0.9v2.2c0,0.1,0,0.2,0.1,0.3l2.4,4.8v2.3c0,0.2,0.1,0.3,0.2,0.4 l1.3,1.3C26.8,36.8,15.9,38.4,8.2,32.6z"></path> </g> </svg> 